<svg width="35" height="39" viewBox="0 0 35 39" fill="none" xmlns="http://www.w3.org/2000/svg">
<g clip-path="url(#clip0_5_2)" filter="url(#filter0_d_5_2)">
<path d="M27.0843 15.9929C27.0194 15.7638 26.7812 15.6307 26.5521 15.6955C26.3231 15.7604 26.1899 15.9986 26.2548 16.2276L27.4285 20.3751L10.8387 25.0702C9.69345 25.3943 9.02777 26.5855 9.3519 27.7308C9.367 27.7996 9.38621 27.8675 9.40941 27.934C9.85196 28.9802 11.0128 29.5234 12.0996 29.193L13.6715 28.7481L13.0846 26.6744L17.2321 25.5006L17.8189 27.5744L28.6023 24.5226C29.0604 24.3929 29.3267 23.9164 29.197 23.4583L28.0233 19.3109" fill="#3B97D3"/>
<path d="M26.6147 14.3339L27.839 18.6597L19.4474 13.9702L21.325 10.6167C22.7435 12.2854 24.5641 13.5648 26.6147 14.3339Z" fill="#95A5A5"/>
<path d="M12.6072 28.1534L11.8648 28.3635C11.2064 28.5708 10.4972 28.2511 10.2166 27.6205C10.2013 27.5665 10.1907 27.5292 10.1814 27.496C9.98688 26.8089 10.3863 26.0941 11.0735 25.8997L27.2485 21.322C27.2293 22.2032 27.4746 23.07 27.9528 23.8104L12.6072 28.1534Z" fill="#F5EFCA"/>
<path d="M27.839 18.6597L27.9059 18.8961C28.035 19.3523 27.8847 20.246 27.4285 20.3751L27.3953 20.3845L18.61 15.475L13.6922 24.2626L11.353 24.9246L16.6807 15.3849L15.1759 14.5475L13.6742 13.7047L6.48521 9.6873L5.82203 7.34399L17.5287 13.8861L19.2118 10.8743L9.84647 5.6406L12.1939 4.97624L20.048 9.36539L20.277 8.95566C20.5611 9.54787 20.9128 10.1052 21.325 10.6167L19.4474 13.9702L27.839 18.6597Z" fill="#F3D55B"/>
<path d="M19.8224 7.7449C19.9405 8.16177 20.0929 8.56812 20.2782 8.95979L20.0492 9.36952L12.1939 4.97623L23.0934 1.89156C20.5738 2.60464 19.1093 5.22527 19.8224 7.7449Z" fill="#F29C1F"/>
<path d="M19.2065 10.8713L17.5234 13.8831L5.82203 7.34399L5.67413 6.82141L9.84646 5.6406L19.2065 10.8713Z" fill="#4FBA6F"/>
<path d="M5.67413 6.82141L10.8387 25.0702C9.69343 25.3943 9.02775 26.5855 9.35188 27.7308L4.18729 9.48202C3.86316 8.33673 4.52884 7.14554 5.67413 6.82141Z" fill="#2980BA"/>
<path d="M27.9059 18.8961L29.197 23.4583L26.9574 24.0921C26.4002 23.3897 26.1467 22.4939 26.2531 21.6037L27.6633 21.2046C28.1214 21.0749 28.3876 20.5985 28.258 20.1403L27.9059 18.8961Z" fill="#285680"/>
<path d="M27.9059 18.8961L28.0232 19.3108C28.0072 19.2568 27.9808 19.2065 27.9455 19.1626C27.9421 19.0726 27.9288 18.9832 27.9059 18.8961Z" fill="#285680"/>
<path d="M27.3953 20.3845L13.6922 24.2626L18.61 15.4749L27.3953 20.3845Z" fill="#95A5A5"/>
<path d="M16.6806 15.3849L11.353 24.9246L10.8387 25.0702L9.65669 20.8937L13.6741 13.7047L15.1759 14.5475L16.6806 15.3849Z" fill="#285680"/>
<path d="M10.7475 12.0692L8.36555 16.3315L6.48517 9.68729L10.7475 12.0692Z" fill="#285680"/>
<path d="M13.6741 13.7047L9.65669 20.8937L8.36554 16.3315L10.7475 12.0692L13.6741 13.7047Z" fill="#4482C3"/>
<path d="M23.0934 1.89156C20.5738 2.60464 19.1093 5.22527 19.8224 7.7449C19.9405 8.16177 20.0929 8.56813 20.2782 8.95979C20.5623 9.552 20.914 10.1094 21.3261 10.6208C22.7448 12.2878 24.565 13.5657 26.6147 14.3339C26.6147 14.3339 30.286 9.89485 28.9467 5.16261C28.6043 3.95264 27.7952 2.92826 26.6975 2.31482C25.5998 1.70138 24.3034 1.54913 23.0934 1.89156ZM24.9714 8.52748C23.5971 8.91643 22.1677 8.11762 21.7787 6.74327C21.3898 5.36893 22.1886 3.93949 23.5629 3.55054C24.9373 3.16159 26.3667 3.96041 26.7556 5.33475C26.9424 5.99473 26.8594 6.70188 26.5248 7.30064C26.1902 7.89939 25.6314 8.3407 24.9714 8.52748Z" fill="#E64C3C"/>
<path d="M24.9714 8.5275C26.3458 8.13854 27.1446 6.70911 26.7556 5.33477C26.3667 3.96042 24.9372 3.16161 23.5629 3.55056C22.1886 3.93951 21.3897 5.36895 21.7787 6.74329C22.1676 8.11763 23.5971 8.91645 24.9714 8.5275Z" fill="#F5EFCA"/>
<path d="M25.0888 8.94221C23.4854 9.39599 21.8177 8.46404 21.364 6.86064C20.9102 5.25724 21.8421 3.58957 23.4455 3.13579C25.049 2.68201 26.7166 3.61396 27.1704 5.21736C27.3883 5.98734 27.2914 6.81235 26.9011 7.51089C26.5107 8.20944 25.8588 8.7243 25.0888 8.94221ZM23.6803 3.96528C22.535 4.2894 21.8693 5.4806 22.1935 6.62589C22.5176 7.77117 23.7088 8.43685 24.8541 8.11272C25.9994 7.78859 26.665 6.5974 26.3409 5.45211C26.1853 4.90213 25.8175 4.4365 25.3185 4.15766C24.8196 3.87883 24.2303 3.80962 23.6803 3.96528Z" fill="#C03A2B"/>
<path d="M19.0084 25.4459L11.9577 27.4413C11.7287 27.5061 11.4904 27.373 11.4256 27.1439C11.3608 26.9148 11.4939 26.6766 11.723 26.6118L18.7736 24.6164C19.0027 24.5515 19.2409 24.6847 19.3058 24.9137C19.3706 25.1428 19.2374 25.381 19.0084 25.4459Z" fill="#E4C05C"/>
<path d="M17.1147 25.0859L18.1711 28.8186C18.2132 28.9676 18.1722 29.1278 18.0636 29.2382C17.9549 29.3486 17.7954 29.3922 17.6457 29.3525L16.1914 28.9622C16.0421 28.9245 15.884 28.9692 15.7767 29.0796L14.7425 30.1741C14.6352 30.282 14.4789 30.3253 14.3313 30.288C14.1837 30.2507 14.0668 30.1383 14.0236 29.9923L12.9672 26.2596L17.1147 25.0859Z" fill="#E64C3C"/>
<path d="M27.9059 18.8961L28.0232 19.3108C28.0072 19.2568 27.9808 19.2065 27.9455 19.1626C27.9421 19.0726 27.9288 18.9832 27.9059 18.8961Z" fill="#3B97D3"/>
</g>
<defs>
<filter id="filter0_d_5_2" x="-0.399597" y="0.600433" width="38.8631" height="38.8631" filterUnits="userSpaceOnUse" color-interpolation-filters="sRGB">
<feFlood flood-opacity="0" result="BackgroundImageFix"/>
<feColorMatrix in="SourceAlpha" type="matrix" values="0 0 0 0 0 0 0 0 0 0 0 0 0 0 0 0 0 0 127 0" result="hardAlpha"/>
<feOffset dy="4"/>
<feGaussianBlur stdDeviation="2"/>
<feColorMatrix type="matrix" values="0 0 0 0 0 0 0 0 0 0 0 0 0 0 0 0 0 0 0.25 0"/>
<feBlend mode="normal" in2="BackgroundImageFix" result="effect1_dropShadow_5_2"/>
<feBlend mode="normal" in="SourceGraphic" in2="effect1_dropShadow_5_2" result="shape"/>
</filter>
<clipPath id="clip0_5_2">
<rect width="25" height="25" fill="white" transform="translate(3.6004 7.40829) rotate(-15.8021)"/>
</clipPath>
</defs>
</svg>
